<svg xmlns="http://www.w3.org/2000/svg" viewBox="0 0 44 44" shape-rendering="crispEdges">
  <!-- rays -->
  <rect x="20" y="4" width="4" height="4" fill="#ff9e1b"/>
  <rect x="8" y="8" width="4" height="4" fill="#ff9e1b"/>
  <rect x="32" y="8" width="4" height="4" fill="#ff9e1b"/>
  <rect x="4" y="20" width="4" height="4" fill="#ff9e1b"/>
  <rect x="36" y="20" width="4" height="4" fill="#ff9e1b"/>
  <rect x="8" y="32" width="4" height="4" fill="#ff9e1b"/>
  <rect x="32" y="32" width="4" height="4" fill="#ff9e1b"/>
  <rect x="20" y="36" width="4" height="4" fill="#ff9e1b"/>
  <!-- body -->
  <rect x="16" y="12" width="4" height="4" fill="#ffcf33"/>
  <rect x="20" y="12" width="4" height="4" fill="#ffcf33"/>
  <rect x="24" y="12" width="4" height="4" fill="#ffcf33"/>
  <rect x="12" y="16" width="4" height="4" fill="#ffcf33"/>
  <rect x="16" y="16" width="4" height="4" fill="#ffcf33"/>
  <rect x="20" y="16" width="4" height="4" fill="#ffcf33"/>
  <rect x="24" y="16" width="4" height="4" fill="#ffcf33"/>
  <rect x="28" y="16" width="4" height="4" fill="#ffcf33"/>
  <rect x="12" y="20" width="4" height="4" fill="#ffcf33"/>
  <rect x="20" y="20" width="4" height="4" fill="#ffcf33"/>
  <rect x="28" y="20" width="4" height="4" fill="#ffcf33"/>
  <rect x="12" y="24" width="4" height="4" fill="#ffcf33"/>
  <rect x="28" y="24" width="4" height="4" fill="#ffcf33"/>
  <rect x="16" y="28" width="4" height="4" fill="#ffcf33"/>
  <rect x="20" y="28" width="4" height="4" fill="#ffcf33"/>
  <rect x="24" y="28" width="4" height="4" fill="#ffcf33"/>
  <!-- face: eyes + smile -->
  <rect x="16" y="20" width="4" height="4" fill="#7a4a12"/>
  <rect x="24" y="20" width="4" height="4" fill="#7a4a12"/>
  <rect x="16" y="24" width="4" height="4" fill="#7a4a12"/>
  <rect x="20" y="24" width="4" height="4" fill="#7a4a12"/>
  <rect x="24" y="24" width="4" height="4" fill="#7a4a12"/>
</svg>
